M48
; DRILL file {KiCad 9.0.6} date 2025-11-30T21:39:54+0100
; FORMAT={-:-/ absolute / metric / decimal}
; #@! TF.CreationDate,2025-11-30T21:39:54+01:00
; #@! TF.GenerationSoftware,Kicad,Pcbnew,9.0.6
; #@! TF.FileFunction,NonPlated,1,2,NPTH
FMAT,2
METRIC
; #@! TA.AperFunction,NonPlated,NPTH,ComponentDrill
T1C1.700
; #@! TA.AperFunction,NonPlated,NPTH,ComponentDrill
T2C4.000
%
G90
G05
T1
X121.126Y-80.962
X121.126Y-100.012
X121.126Y-119.062
X131.286Y-80.962
X131.286Y-100.012
X131.286Y-119.062
X140.176Y-80.962
X140.176Y-100.012
X140.176Y-119.062
X150.336Y-80.962
X150.336Y-100.012
X150.336Y-119.062
X159.226Y-80.962
X159.226Y-100.012
X159.226Y-119.062
X169.386Y-80.962
X169.386Y-100.012
X169.386Y-119.062
X178.276Y-80.962
X178.276Y-100.012
X178.276Y-119.062
X188.436Y-80.962
X188.436Y-100.012
X188.436Y-119.062
T2
X126.206Y-80.962
X126.206Y-100.012
X126.206Y-119.062
X145.256Y-80.962
X145.256Y-100.012
X145.256Y-119.062
X164.306Y-80.962
X164.306Y-100.012
X164.306Y-119.062
X183.356Y-80.962
X183.356Y-100.012
X183.356Y-119.062
M30
