M48
; DRILL file {KiCad 9.0.6} date 2025-11-30T21:39:54+0100
; FORMAT={-:-/ absolute / metric / decimal}
; #@! TF.CreationDate,2025-11-30T21:39:54+01:00
; #@! TF.GenerationSoftware,Kicad,Pcbnew,9.0.6
; #@! TF.FileFunction,Plated,1,2,PTH
FMAT,2
METRIC
; #@! TA.AperFunction,Plated,PTH,ComponentDrill
T1C0.800
; #@! TA.AperFunction,Plated,PTH,ComponentDrill
T2C0.889
; #@! TA.AperFunction,Plated,PTH,ComponentDrill
T3C1.000
; #@! TA.AperFunction,Plated,PTH,ComponentDrill
T4C1.500
%
G90
G05
T1
X117.856Y-70.866
X117.856Y-78.486
X117.856Y-89.916
X117.856Y-97.536
X117.856Y-109.093
X117.856Y-116.713
X136.906Y-89.916
X136.906Y-97.536
X136.906Y-108.966
X136.906Y-116.586
X136.97Y-70.84
X136.97Y-78.46
X155.956Y-70.866
X155.956Y-78.486
X155.956Y-89.916
X155.956Y-97.536
X155.956Y-108.966
X155.956Y-116.586
X175.006Y-70.866
X175.006Y-78.486
X175.006Y-89.916
X175.006Y-97.536
X175.006Y-108.966
X175.006Y-116.586
T2
X147.14Y-51.438
X147.14Y-53.978
X147.14Y-56.518
X147.14Y-59.058
X147.14Y-61.598
X147.14Y-64.138
X147.14Y-66.678
X162.38Y-51.438
X162.38Y-53.978
X162.38Y-56.518
X162.38Y-59.058
X162.38Y-61.598
X162.38Y-64.138
X162.38Y-66.678
T3
X147.309Y-138.089
X147.309Y-140.589
X147.309Y-143.089
X161.809Y-138.089
X161.809Y-143.089
T4
X122.396Y-78.422
X122.396Y-97.472
X122.396Y-116.522
X128.746Y-75.882
X128.746Y-94.932
X128.746Y-113.983
X141.446Y-78.422
X141.446Y-97.472
X141.446Y-116.522
X147.796Y-75.882
X147.796Y-94.932
X147.796Y-113.983
X160.496Y-78.422
X160.496Y-97.472
X160.496Y-116.522
X166.846Y-75.882
X166.846Y-94.932
X166.846Y-113.983
X179.546Y-78.422
X179.546Y-97.472
X179.546Y-116.522
X185.896Y-75.882
X185.896Y-94.932
X185.896Y-113.983
T4
G00X154.159Y-134.989
M15
G01X155.459Y-134.989
M16
G05
G00X154.159Y-146.189
M15
G01X155.459Y-146.189
M16
G05
M30
