%TF.GenerationSoftware,KiCad,Pcbnew,9.0.6*%
%TF.CreationDate,2025-11-30T21:38:08+01:00*%
%TF.ProjectId,Progetto1,50726f67-6574-4746-9f31-2e6b69636164,rev?*%
%TF.SameCoordinates,Original*%
%TF.FileFunction,Copper,L2,Bot*%
%TF.FilePolarity,Positive*%
%FSLAX46Y46*%
G04 Gerber Fmt 4.6, Leading zero omitted, Abs format (unit mm)*
G04 Created by KiCad (PCBNEW 9.0.6) date 2025-11-30 21:38:08*
%MOMM*%
%LPD*%
G01*
G04 APERTURE LIST*
G04 Aperture macros list*
%AMRoundRect*
0 Rectangle with rounded corners*
0 $1 Rounding radius*
0 $2 $3 $4 $5 $6 $7 $8 $9 X,Y pos of 4 corners*
0 Add a 4 corners polygon primitive as box body*
4,1,4,$2,$3,$4,$5,$6,$7,$8,$9,$2,$3,0*
0 Add four circle primitives for the rounded corners*
1,1,$1+$1,$2,$3*
1,1,$1+$1,$4,$5*
1,1,$1+$1,$6,$7*
1,1,$1+$1,$8,$9*
0 Add four rect primitives between the rounded corners*
20,1,$1+$1,$2,$3,$4,$5,0*
20,1,$1+$1,$4,$5,$6,$7,0*
20,1,$1+$1,$6,$7,$8,$9,0*
20,1,$1+$1,$8,$9,$2,$3,0*%
G04 Aperture macros list end*
%TA.AperFunction,ComponentPad*%
%ADD10C,2.200000*%
%TD*%
%TA.AperFunction,ComponentPad*%
%ADD11R,2.000000X2.000000*%
%TD*%
%TA.AperFunction,ComponentPad*%
%ADD12C,2.000000*%
%TD*%
%TA.AperFunction,ComponentPad*%
%ADD13R,3.200000X2.000000*%
%TD*%
%TA.AperFunction,ComponentPad*%
%ADD14C,1.524000*%
%TD*%
%TA.AperFunction,ComponentPad*%
%ADD15RoundRect,0.250000X-0.550000X0.550000X-0.550000X-0.550000X0.550000X-0.550000X0.550000X0.550000X0*%
%TD*%
%TA.AperFunction,ComponentPad*%
%ADD16C,1.600000*%
%TD*%
%TA.AperFunction,Conductor*%
%ADD17C,0.200000*%
%TD*%
G04 APERTURE END LIST*
D10*
%TO.P,SW11,1,1*%
%TO.N,Net-(U1-GPIO27{slash}ADC1{slash}A1)*%
X166846250Y-113982500D03*
%TO.P,SW11,2,2*%
%TO.N,Net-(D11-A)*%
X160496250Y-116522500D03*
%TD*%
%TO.P,SW1,1,1*%
%TO.N,Net-(U1-GPIO29{slash}ADC3{slash}A3)*%
X128746250Y-75882500D03*
%TO.P,SW1,2,2*%
%TO.N,Net-(D3-A)*%
X122396250Y-78422500D03*
%TD*%
%TO.P,SW6,1,1*%
%TO.N,Net-(U1-GPIO28{slash}ADC2{slash}A2)*%
X147796250Y-94932500D03*
%TO.P,SW6,2,2*%
%TO.N,Net-(D7-A)*%
X141446250Y-97472500D03*
%TD*%
D11*
%TO.P,SW13,A,A*%
%TO.N,Net-(U1-GPIO4{slash}MISO)*%
X147309000Y-138089000D03*
D12*
%TO.P,SW13,B,B*%
%TO.N,Net-(U1-GPIO2{slash}SCK)*%
X147309000Y-143089000D03*
%TO.P,SW13,C,C*%
%TO.N,GND*%
X147309000Y-140589000D03*
D13*
%TO.P,SW13,MP*%
%TO.N,N/C*%
X154809000Y-134989000D03*
X154809000Y-146189000D03*
D12*
%TO.P,SW13,S1*%
X161809000Y-143089000D03*
%TO.P,SW13,S2*%
X161809000Y-138089000D03*
%TD*%
D10*
%TO.P,SW10,1,1*%
%TO.N,Net-(U1-GPIO27{slash}ADC1{slash}A1)*%
X147796250Y-113982500D03*
%TO.P,SW10,2,2*%
%TO.N,Net-(D6-A)*%
X141446250Y-116522500D03*
%TD*%
D14*
%TO.P,U1,1,GPIO26/ADC0/A0*%
%TO.N,Net-(D3-K)*%
X147140000Y-51438500D03*
%TO.P,U1,2,GPIO27/ADC1/A1*%
%TO.N,Net-(U1-GPIO27{slash}ADC1{slash}A1)*%
X147140000Y-53978500D03*
%TO.P,U1,3,GPIO28/ADC2/A2*%
%TO.N,Net-(U1-GPIO28{slash}ADC2{slash}A2)*%
X147140000Y-56518500D03*
%TO.P,U1,4,GPIO29/ADC3/A3*%
%TO.N,Net-(U1-GPIO29{slash}ADC3{slash}A3)*%
X147140000Y-59058500D03*
%TO.P,U1,5,GPIO6/SDA*%
%TO.N,Net-(D6-K)*%
X147140000Y-61598500D03*
%TO.P,U1,6,GPIO7/SCL*%
%TO.N,Net-(D10-K)*%
X147140000Y-64138500D03*
%TO.P,U1,7,GPIO0/TX*%
%TO.N,Net-(D12-K)*%
X147140000Y-66678500D03*
%TO.P,U1,8,GPIO1/RX*%
%TO.N,unconnected-(U1-GPIO1{slash}RX-Pad8)*%
X162380000Y-66678500D03*
%TO.P,U1,9,GPIO2/SCK*%
%TO.N,Net-(U1-GPIO2{slash}SCK)*%
X162380000Y-64138500D03*
%TO.P,U1,10,GPIO4/MISO*%
%TO.N,Net-(U1-GPIO4{slash}MISO)*%
X162380000Y-61598500D03*
%TO.P,U1,11,GPIO3/MOSI*%
%TO.N,Net-(D2-DIN)*%
X162380000Y-59058500D03*
%TO.P,U1,12,3V3*%
%TO.N,unconnected-(U1-3V3-Pad12)*%
X162380000Y-56518500D03*
%TO.P,U1,13,GND*%
%TO.N,unconnected-(U1-GND-Pad13)*%
X162380000Y-53978500D03*
%TO.P,U1,14,VBUS*%
%TO.N,unconnected-(U1-VBUS-Pad14)*%
X162380000Y-51438500D03*
%TD*%
D10*
%TO.P,SW9,1,1*%
%TO.N,Net-(U1-GPIO27{slash}ADC1{slash}A1)*%
X128746250Y-113982500D03*
%TO.P,SW9,2,2*%
%TO.N,Net-(D5-A)*%
X122396250Y-116522500D03*
%TD*%
%TO.P,SW3,1,1*%
%TO.N,Net-(U1-GPIO29{slash}ADC3{slash}A3)*%
X166846250Y-75882500D03*
%TO.P,SW3,2,2*%
%TO.N,Net-(D9-A)*%
X160496250Y-78422500D03*
%TD*%
%TO.P,SW12,1,1*%
%TO.N,Net-(U1-GPIO27{slash}ADC1{slash}A1)*%
X185896250Y-113982500D03*
%TO.P,SW12,2,2*%
%TO.N,Net-(D12-A)*%
X179546250Y-116522500D03*
%TD*%
%TO.P,SW8,1,1*%
%TO.N,Net-(U1-GPIO28{slash}ADC2{slash}A2)*%
X185896250Y-94932500D03*
%TO.P,SW8,2,2*%
%TO.N,Net-(D13-A)*%
X179546250Y-97472500D03*
%TD*%
%TO.P,SW2,1,1*%
%TO.N,Net-(U1-GPIO29{slash}ADC3{slash}A3)*%
X147796250Y-75882500D03*
%TO.P,SW2,2,2*%
%TO.N,Net-(D8-A)*%
X141446250Y-78422500D03*
%TD*%
%TO.P,SW4,1,1*%
%TO.N,Net-(U1-GPIO29{slash}ADC3{slash}A3)*%
X185896250Y-75882500D03*
%TO.P,SW4,2,2*%
%TO.N,Net-(D14-A)*%
X179546250Y-78422500D03*
%TD*%
%TO.P,SW5,1,1*%
%TO.N,Net-(U1-GPIO28{slash}ADC2{slash}A2)*%
X128746250Y-94932500D03*
%TO.P,SW5,2,2*%
%TO.N,Net-(D4-A)*%
X122396250Y-97472500D03*
%TD*%
%TO.P,SW7,1,1*%
%TO.N,Net-(U1-GPIO28{slash}ADC2{slash}A2)*%
X166846250Y-94932500D03*
%TO.P,SW7,2,2*%
%TO.N,Net-(D10-A)*%
X160496250Y-97472500D03*
%TD*%
D15*
%TO.P,D8,1,K*%
%TO.N,Net-(D6-K)*%
X136970000Y-70840000D03*
D16*
%TO.P,D8,2,A*%
%TO.N,Net-(D8-A)*%
X136970000Y-78460000D03*
%TD*%
D15*
%TO.P,D13,1,K*%
%TO.N,Net-(D12-K)*%
X175006000Y-89916000D03*
D16*
%TO.P,D13,2,A*%
%TO.N,Net-(D13-A)*%
X175006000Y-97536000D03*
%TD*%
D15*
%TO.P,D5,1,K*%
%TO.N,Net-(D3-K)*%
X117856000Y-109093000D03*
D16*
%TO.P,D5,2,A*%
%TO.N,Net-(D5-A)*%
X117856000Y-116713000D03*
%TD*%
D15*
%TO.P,D10,1,K*%
%TO.N,Net-(D10-K)*%
X155956000Y-89916000D03*
D16*
%TO.P,D10,2,A*%
%TO.N,Net-(D10-A)*%
X155956000Y-97536000D03*
%TD*%
D15*
%TO.P,D6,1,K*%
%TO.N,Net-(D6-K)*%
X136906000Y-108966000D03*
D16*
%TO.P,D6,2,A*%
%TO.N,Net-(D6-A)*%
X136906000Y-116586000D03*
%TD*%
D15*
%TO.P,D9,1,K*%
%TO.N,Net-(D10-K)*%
X155956000Y-70866000D03*
D16*
%TO.P,D9,2,A*%
%TO.N,Net-(D9-A)*%
X155956000Y-78486000D03*
%TD*%
D15*
%TO.P,D14,1,K*%
%TO.N,Net-(D12-K)*%
X175006000Y-70866000D03*
D16*
%TO.P,D14,2,A*%
%TO.N,Net-(D14-A)*%
X175006000Y-78486000D03*
%TD*%
D15*
%TO.P,D7,1,K*%
%TO.N,Net-(D6-K)*%
X136906000Y-89916000D03*
D16*
%TO.P,D7,2,A*%
%TO.N,Net-(D7-A)*%
X136906000Y-97536000D03*
%TD*%
D15*
%TO.P,D12,1,K*%
%TO.N,Net-(D12-K)*%
X175006000Y-108966000D03*
D16*
%TO.P,D12,2,A*%
%TO.N,Net-(D12-A)*%
X175006000Y-116586000D03*
%TD*%
D15*
%TO.P,D11,1,K*%
%TO.N,Net-(D10-K)*%
X155956000Y-108966000D03*
D16*
%TO.P,D11,2,A*%
%TO.N,Net-(D11-A)*%
X155956000Y-116586000D03*
%TD*%
D15*
%TO.P,D3,1,K*%
%TO.N,Net-(D3-K)*%
X117856000Y-70866000D03*
D16*
%TO.P,D3,2,A*%
%TO.N,Net-(D3-A)*%
X117856000Y-78486000D03*
%TD*%
D15*
%TO.P,D4,1,K*%
%TO.N,Net-(D3-K)*%
X117856000Y-89916000D03*
D16*
%TO.P,D4,2,A*%
%TO.N,Net-(D4-A)*%
X117856000Y-97536000D03*
%TD*%
D17*
%TO.N,Net-(D3-K)*%
X116755000Y-71967000D02*
X117856000Y-70866000D01*
X116755000Y-107992000D02*
X116755000Y-91017000D01*
X116755000Y-88815000D02*
X116755000Y-71967000D01*
X117856000Y-89916000D02*
X116755000Y-88815000D01*
X116755000Y-91017000D02*
X117856000Y-89916000D01*
X117856000Y-109093000D02*
X116755000Y-107992000D01*
%TO.N,Net-(D6-K)*%
X135805000Y-107865000D02*
X135805000Y-91017000D01*
X135869000Y-71941000D02*
X136970000Y-70840000D01*
X136906000Y-89916000D02*
X135869000Y-88879000D01*
X136906000Y-108966000D02*
X135805000Y-107865000D01*
X135869000Y-88879000D02*
X135869000Y-71941000D01*
X135805000Y-91017000D02*
X136906000Y-89916000D01*
%TO.N,Net-(D10-K)*%
X154855000Y-107865000D02*
X154855000Y-91017000D01*
X154855000Y-71967000D02*
X155956000Y-70866000D01*
X155956000Y-89916000D02*
X154855000Y-88815000D01*
X155956000Y-70866000D02*
X153867500Y-70866000D01*
X155956000Y-108966000D02*
X154855000Y-107865000D01*
X153867500Y-70866000D02*
X147140000Y-64138500D01*
X154855000Y-88815000D02*
X154855000Y-71967000D01*
X154855000Y-91017000D02*
X155956000Y-89916000D01*
%TO.N,Net-(D12-K)*%
X175006000Y-70866000D02*
X173905000Y-71967000D01*
X173863000Y-107823000D02*
X175006000Y-108966000D01*
X173863000Y-91059000D02*
X173863000Y-107823000D01*
X175006000Y-89916000D02*
X173863000Y-91059000D01*
X173905000Y-71967000D02*
X173905000Y-88815000D01*
X173905000Y-88815000D02*
X175006000Y-89916000D01*
%TO.N,Net-(U1-GPIO4{slash}MISO)*%
X147309000Y-138089000D02*
X157763000Y-127635000D01*
X162380000Y-61598500D02*
X179678500Y-61598500D01*
X179678500Y-61598500D02*
X192278000Y-74198000D01*
X192278000Y-127635000D02*
X192278000Y-74198000D01*
X157763000Y-127635000D02*
X192278000Y-127635000D01*
%TO.N,Net-(U1-GPIO2{slash}SCK)*%
X146008000Y-121692280D02*
X168888780Y-98811500D01*
X147309000Y-143089000D02*
X146008000Y-141788000D01*
X163717000Y-64138500D02*
X162380000Y-64138500D01*
X168888780Y-82163500D02*
X164940000Y-78214720D01*
X146008000Y-141788000D02*
X146008000Y-121692280D01*
X168888780Y-98811500D02*
X168888780Y-82163500D01*
X164940000Y-65361500D02*
X164940000Y-78214720D01*
X163717000Y-64138500D02*
X164940000Y-65361500D01*
%TO.N,Net-(U1-GPIO27{slash}ADC1{slash}A1)*%
X135255000Y-107473750D02*
X128746250Y-113982500D01*
X147140000Y-53978500D02*
X145284500Y-53978500D01*
X145284500Y-53978500D02*
X135255000Y-64008000D01*
X135255000Y-107473750D02*
X135255000Y-64008000D01*
%TD*%
M02*
