%TF.GenerationSoftware,KiCad,Pcbnew,9.0.6*%
%TF.CreationDate,2025-11-30T21:38:08+01:00*%
%TF.ProjectId,Progetto1,50726f67-6574-4746-9f31-2e6b69636164,rev?*%
%TF.SameCoordinates,Original*%
%TF.FileFunction,Legend,Top*%
%TF.FilePolarity,Positive*%
%FSLAX46Y46*%
G04 Gerber Fmt 4.6, Leading zero omitted, Abs format (unit mm)*
G04 Created by KiCad (PCBNEW 9.0.6) date 2025-11-30 21:38:08*
%MOMM*%
%LPD*%
G01*
G04 APERTURE LIST*
%ADD10C,0.100000*%
%ADD11C,0.150000*%
%ADD12C,0.120000*%
%ADD13C,0.127000*%
%ADD14C,0.504000*%
G04 APERTURE END LIST*
D10*
X131910000Y-56300000D02*
X132020000Y-56950000D01*
X133550000Y-58220000D01*
X133290000Y-60370000D01*
X131930000Y-61140000D01*
X130380000Y-57370000D01*
X130580000Y-56480000D01*
X131270000Y-55980000D01*
X131910000Y-56300000D01*
G36*
X131910000Y-56300000D02*
G01*
X132020000Y-56950000D01*
X133550000Y-58220000D01*
X133290000Y-60370000D01*
X131930000Y-61140000D01*
X130380000Y-57370000D01*
X130580000Y-56480000D01*
X131270000Y-55980000D01*
X131910000Y-56300000D01*
G37*
X126680000Y-56010000D02*
X126080000Y-56250000D01*
X133390000Y-51500000D02*
X134440000Y-51600000D01*
X132040000Y-52490000D02*
X131570000Y-53910000D01*
X131930000Y-61140000D02*
X131930000Y-62340000D01*
X122590000Y-52790000D02*
X123560000Y-51670000D01*
X131910000Y-56300000D02*
X132020000Y-56950000D01*
X135210000Y-61720000D02*
X132040000Y-63900000D01*
X130580000Y-54310000D02*
X130580000Y-56480000D01*
X127670000Y-63440000D02*
X126070000Y-62370000D01*
X133290000Y-60370000D02*
X131930000Y-61140000D01*
X130380000Y-57370000D02*
X130000000Y-61180000D01*
X127660000Y-57400000D02*
X130380000Y-57370000D01*
X126070000Y-62370000D02*
X126070000Y-61070000D01*
X135260000Y-55690000D02*
X135870000Y-58820000D01*
X130000000Y-61180000D02*
X130330000Y-61560000D01*
X124780000Y-51550000D02*
X126020000Y-52480000D01*
X133290000Y-60370000D02*
X135210000Y-61720000D01*
X127520000Y-56480000D02*
X127660000Y-57400000D01*
X130330000Y-61560000D02*
X131930000Y-62340000D01*
X132020000Y-56950000D02*
X133550000Y-58220000D01*
X130330000Y-61560000D02*
X131290000Y-59600000D01*
X131910000Y-56300000D02*
X131570000Y-53910000D01*
X126070000Y-61070000D02*
X124820000Y-60360000D01*
X124820000Y-60360000D02*
X122820000Y-61660000D01*
X130380000Y-57370000D02*
X130580000Y-56480000D01*
X123560000Y-51670000D02*
X124780000Y-51550000D01*
X122820000Y-61660000D02*
X122150000Y-58870000D01*
X122150000Y-58870000D02*
X123645000Y-57110000D01*
X126430000Y-53920000D02*
X126020000Y-52480000D01*
X130380000Y-63440000D02*
X127670000Y-63440000D01*
X126800000Y-59670000D02*
X127670000Y-61480000D01*
X130580000Y-56480000D02*
X127520000Y-56480000D01*
X124820000Y-60360000D02*
X124450000Y-58240000D01*
X125940000Y-63900000D02*
X122820000Y-61660000D01*
X132040000Y-63900000D02*
X131370000Y-62750000D01*
X134440000Y-51600000D02*
X135440000Y-52730000D01*
X131270000Y-55980000D02*
X131910000Y-56300000D01*
X130580000Y-56480000D02*
X131270000Y-55980000D01*
X135870000Y-58820000D02*
X135210000Y-61720000D01*
X126800000Y-59670000D02*
X126070000Y-61070000D01*
X134870000Y-55360000D02*
X135260000Y-55690000D01*
X126020000Y-52480000D02*
X123130000Y-55410000D01*
X122150000Y-58870000D02*
X122840000Y-55750000D01*
X132040000Y-52490000D02*
X133390000Y-51500000D01*
X128350000Y-51750000D02*
X129760000Y-51750000D01*
X126070000Y-62370000D02*
X127670000Y-61480000D01*
X125940000Y-63900000D02*
X126660000Y-62780000D01*
X122450000Y-54550000D02*
X122590000Y-52790000D01*
X128040000Y-61180000D02*
X127670000Y-61480000D01*
X125950000Y-56970000D02*
X126430000Y-53920000D01*
X127660000Y-57400000D02*
X126800000Y-59670000D01*
X135610000Y-54640000D02*
X134870000Y-55360000D01*
X131570000Y-53910000D02*
X130580000Y-54310000D01*
X134870000Y-55360000D02*
X132040000Y-52490000D01*
X131930000Y-62340000D02*
X130380000Y-63440000D01*
X133550000Y-58220000D02*
X133290000Y-60370000D01*
X128040000Y-61180000D02*
X127660000Y-57400000D01*
X129240000Y-62630000D02*
X130330000Y-61560000D01*
X134440000Y-51600000D02*
X135440000Y-52730000D01*
X135610000Y-54640000D01*
X134870000Y-55360000D01*
X132040000Y-52490000D01*
X133390000Y-51500000D01*
X134440000Y-51600000D01*
G36*
X134440000Y-51600000D02*
G01*
X135440000Y-52730000D01*
X135610000Y-54640000D01*
X134870000Y-55360000D01*
X132040000Y-52490000D01*
X133390000Y-51500000D01*
X134440000Y-51600000D01*
G37*
X126020000Y-52480000D02*
X123130000Y-55410000D01*
X122450000Y-54550000D01*
X122590000Y-52790000D01*
X123560000Y-51670000D01*
X124780000Y-51550000D01*
X126020000Y-52480000D01*
G36*
X126020000Y-52480000D02*
G01*
X123130000Y-55410000D01*
X122450000Y-54550000D01*
X122590000Y-52790000D01*
X123560000Y-51670000D01*
X124780000Y-51550000D01*
X126020000Y-52480000D01*
G37*
X128890000Y-62640000D02*
X127340000Y-63220000D01*
X133550000Y-58220000D02*
X135260000Y-55690000D01*
X127390000Y-54310000D02*
X127520000Y-56480000D01*
X130330000Y-61560000D02*
X129240000Y-62630000D01*
X130720000Y-63200000D01*
X130380000Y-63440000D01*
X127670000Y-63440000D01*
X127370000Y-63220000D01*
X128890000Y-62640000D01*
X127670000Y-61480000D01*
X128040000Y-61180000D01*
X130000000Y-61180000D01*
X130330000Y-61560000D01*
G36*
X130330000Y-61560000D02*
G01*
X129240000Y-62630000D01*
X130720000Y-63200000D01*
X130380000Y-63440000D01*
X127670000Y-63440000D01*
X127370000Y-63220000D01*
X128890000Y-62640000D01*
X127670000Y-61480000D01*
X128040000Y-61180000D01*
X130000000Y-61180000D01*
X130330000Y-61560000D01*
G37*
X130000000Y-61180000D02*
X128040000Y-61180000D01*
X127670000Y-61480000D02*
X128890000Y-62640000D01*
X131930000Y-61140000D02*
X130380000Y-57370000D01*
X126020000Y-52480000D02*
X128350000Y-51750000D01*
X127600000Y-63900000D02*
X127090000Y-63060000D01*
X127520000Y-56480000D02*
X126680000Y-56010000D01*
X126430000Y-53920000D02*
X127390000Y-54310000D01*
X134405000Y-57050000D02*
X135870000Y-58820000D01*
X122840000Y-55750000D02*
X124450000Y-58240000D01*
X127520000Y-56480000D02*
X127660000Y-57400000D01*
X126800000Y-59670000D01*
X126070000Y-61070000D01*
X124820000Y-60360000D01*
X124450000Y-58240000D01*
X125950000Y-56970000D01*
X126080000Y-56250000D01*
X126680000Y-56010000D01*
X127520000Y-56480000D01*
G36*
X127520000Y-56480000D02*
G01*
X127660000Y-57400000D01*
X126800000Y-59670000D01*
X126070000Y-61070000D01*
X124820000Y-60360000D01*
X124450000Y-58240000D01*
X125950000Y-56970000D01*
X126080000Y-56250000D01*
X126680000Y-56010000D01*
X127520000Y-56480000D01*
G37*
X122840000Y-55750000D02*
X123130000Y-55410000D01*
X129760000Y-51750000D02*
X132040000Y-52490000D01*
X130720000Y-63200000D02*
X129240000Y-62630000D01*
X123130000Y-55410000D02*
X122450000Y-54550000D01*
X132040000Y-63900000D02*
X125940000Y-63900000D01*
X124450000Y-58240000D02*
X125950000Y-56970000D01*
X130520000Y-63900000D02*
X130960000Y-63030000D01*
X135610000Y-54640000D02*
X135440000Y-52730000D01*
X151106667Y-58893419D02*
X151773333Y-59893419D01*
X151773333Y-58893419D02*
X151106667Y-59893419D01*
X152154286Y-59893419D02*
X152154286Y-58893419D01*
X152582857Y-59607704D02*
X153059047Y-59607704D01*
X152487619Y-59893419D02*
X152820952Y-58893419D01*
X152820952Y-58893419D02*
X153154285Y-59893419D01*
X153678095Y-58893419D02*
X153868571Y-58893419D01*
X153868571Y-58893419D02*
X153963809Y-58941038D01*
X153963809Y-58941038D02*
X154059047Y-59036276D01*
X154059047Y-59036276D02*
X154106666Y-59226752D01*
X154106666Y-59226752D02*
X154106666Y-59560085D01*
X154106666Y-59560085D02*
X154059047Y-59750561D01*
X154059047Y-59750561D02*
X153963809Y-59845800D01*
X153963809Y-59845800D02*
X153868571Y-59893419D01*
X153868571Y-59893419D02*
X153678095Y-59893419D01*
X153678095Y-59893419D02*
X153582857Y-59845800D01*
X153582857Y-59845800D02*
X153487619Y-59750561D01*
X153487619Y-59750561D02*
X153440000Y-59560085D01*
X153440000Y-59560085D02*
X153440000Y-59226752D01*
X153440000Y-59226752D02*
X153487619Y-59036276D01*
X153487619Y-59036276D02*
X153582857Y-58941038D01*
X153582857Y-58941038D02*
X153678095Y-58893419D01*
X155297143Y-59893419D02*
X155297143Y-58893419D01*
X155297143Y-59369609D02*
X155868571Y-59369609D01*
X155868571Y-59893419D02*
X155868571Y-58893419D01*
X156344762Y-59369609D02*
X156678095Y-59369609D01*
X156820952Y-59893419D02*
X156344762Y-59893419D01*
X156344762Y-59893419D02*
X156344762Y-58893419D01*
X156344762Y-58893419D02*
X156820952Y-58893419D01*
X157820952Y-59893419D02*
X157487619Y-59417228D01*
X157249524Y-59893419D02*
X157249524Y-58893419D01*
X157249524Y-58893419D02*
X157630476Y-58893419D01*
X157630476Y-58893419D02*
X157725714Y-58941038D01*
X157725714Y-58941038D02*
X157773333Y-58988657D01*
X157773333Y-58988657D02*
X157820952Y-59083895D01*
X157820952Y-59083895D02*
X157820952Y-59226752D01*
X157820952Y-59226752D02*
X157773333Y-59321990D01*
X157773333Y-59321990D02*
X157725714Y-59369609D01*
X157725714Y-59369609D02*
X157630476Y-59417228D01*
X157630476Y-59417228D02*
X157249524Y-59417228D01*
X158249524Y-59369609D02*
X158582857Y-59369609D01*
X158725714Y-59893419D02*
X158249524Y-59893419D01*
X158249524Y-59893419D02*
X158249524Y-58893419D01*
X158249524Y-58893419D02*
X158725714Y-58893419D01*
X170547618Y-51267419D02*
X170547618Y-50267419D01*
X170547618Y-50267419D02*
X170880951Y-50981704D01*
X170880951Y-50981704D02*
X171214284Y-50267419D01*
X171214284Y-50267419D02*
X171214284Y-51267419D01*
X172119046Y-51267419D02*
X172119046Y-50743609D01*
X172119046Y-50743609D02*
X172071427Y-50648371D01*
X172071427Y-50648371D02*
X171976189Y-50600752D01*
X171976189Y-50600752D02*
X171785713Y-50600752D01*
X171785713Y-50600752D02*
X171690475Y-50648371D01*
X172119046Y-51219800D02*
X172023808Y-51267419D01*
X172023808Y-51267419D02*
X171785713Y-51267419D01*
X171785713Y-51267419D02*
X171690475Y-51219800D01*
X171690475Y-51219800D02*
X171642856Y-51124561D01*
X171642856Y-51124561D02*
X171642856Y-51029323D01*
X171642856Y-51029323D02*
X171690475Y-50934085D01*
X171690475Y-50934085D02*
X171785713Y-50886466D01*
X171785713Y-50886466D02*
X172023808Y-50886466D01*
X172023808Y-50886466D02*
X172119046Y-50838847D01*
X173023808Y-51267419D02*
X173023808Y-50267419D01*
X173023808Y-51219800D02*
X172928570Y-51267419D01*
X172928570Y-51267419D02*
X172738094Y-51267419D01*
X172738094Y-51267419D02*
X172642856Y-51219800D01*
X172642856Y-51219800D02*
X172595237Y-51172180D01*
X172595237Y-51172180D02*
X172547618Y-51076942D01*
X172547618Y-51076942D02*
X172547618Y-50791228D01*
X172547618Y-50791228D02*
X172595237Y-50695990D01*
X172595237Y-50695990D02*
X172642856Y-50648371D01*
X172642856Y-50648371D02*
X172738094Y-50600752D01*
X172738094Y-50600752D02*
X172928570Y-50600752D01*
X172928570Y-50600752D02*
X173023808Y-50648371D01*
X173880951Y-51219800D02*
X173785713Y-51267419D01*
X173785713Y-51267419D02*
X173595237Y-51267419D01*
X173595237Y-51267419D02*
X173499999Y-51219800D01*
X173499999Y-51219800D02*
X173452380Y-51124561D01*
X173452380Y-51124561D02*
X173452380Y-50743609D01*
X173452380Y-50743609D02*
X173499999Y-50648371D01*
X173499999Y-50648371D02*
X173595237Y-50600752D01*
X173595237Y-50600752D02*
X173785713Y-50600752D01*
X173785713Y-50600752D02*
X173880951Y-50648371D01*
X173880951Y-50648371D02*
X173928570Y-50743609D01*
X173928570Y-50743609D02*
X173928570Y-50838847D01*
X173928570Y-50838847D02*
X173452380Y-50934085D01*
X175119047Y-51267419D02*
X175119047Y-50267419D01*
X175119047Y-50648371D02*
X175214285Y-50600752D01*
X175214285Y-50600752D02*
X175404761Y-50600752D01*
X175404761Y-50600752D02*
X175499999Y-50648371D01*
X175499999Y-50648371D02*
X175547618Y-50695990D01*
X175547618Y-50695990D02*
X175595237Y-50791228D01*
X175595237Y-50791228D02*
X175595237Y-51076942D01*
X175595237Y-51076942D02*
X175547618Y-51172180D01*
X175547618Y-51172180D02*
X175499999Y-51219800D01*
X175499999Y-51219800D02*
X175404761Y-51267419D01*
X175404761Y-51267419D02*
X175214285Y-51267419D01*
X175214285Y-51267419D02*
X175119047Y-51219800D01*
X175928571Y-50600752D02*
X176166666Y-51267419D01*
X176404761Y-50600752D02*
X176166666Y-51267419D01*
X176166666Y-51267419D02*
X176071428Y-51505514D01*
X176071428Y-51505514D02*
X176023809Y-51553133D01*
X176023809Y-51553133D02*
X175928571Y-51600752D01*
X176785714Y-51172180D02*
X176833333Y-51219800D01*
X176833333Y-51219800D02*
X176785714Y-51267419D01*
X176785714Y-51267419D02*
X176738095Y-51219800D01*
X176738095Y-51219800D02*
X176785714Y-51172180D01*
X176785714Y-51172180D02*
X176785714Y-51267419D01*
X176785714Y-50648371D02*
X176833333Y-50695990D01*
X176833333Y-50695990D02*
X176785714Y-50743609D01*
X176785714Y-50743609D02*
X176738095Y-50695990D01*
X176738095Y-50695990D02*
X176785714Y-50648371D01*
X176785714Y-50648371D02*
X176785714Y-50743609D01*
X178023809Y-51267419D02*
X178023809Y-50267419D01*
X178023809Y-50267419D02*
X178261904Y-50267419D01*
X178261904Y-50267419D02*
X178404761Y-50315038D01*
X178404761Y-50315038D02*
X178499999Y-50410276D01*
X178499999Y-50410276D02*
X178547618Y-50505514D01*
X178547618Y-50505514D02*
X178595237Y-50695990D01*
X178595237Y-50695990D02*
X178595237Y-50838847D01*
X178595237Y-50838847D02*
X178547618Y-51029323D01*
X178547618Y-51029323D02*
X178499999Y-51124561D01*
X178499999Y-51124561D02*
X178404761Y-51219800D01*
X178404761Y-51219800D02*
X178261904Y-51267419D01*
X178261904Y-51267419D02*
X178023809Y-51267419D01*
X179452380Y-51267419D02*
X179452380Y-50743609D01*
X179452380Y-50743609D02*
X179404761Y-50648371D01*
X179404761Y-50648371D02*
X179309523Y-50600752D01*
X179309523Y-50600752D02*
X179119047Y-50600752D01*
X179119047Y-50600752D02*
X179023809Y-50648371D01*
X179452380Y-51219800D02*
X179357142Y-51267419D01*
X179357142Y-51267419D02*
X179119047Y-51267419D01*
X179119047Y-51267419D02*
X179023809Y-51219800D01*
X179023809Y-51219800D02*
X178976190Y-51124561D01*
X178976190Y-51124561D02*
X178976190Y-51029323D01*
X178976190Y-51029323D02*
X179023809Y-50934085D01*
X179023809Y-50934085D02*
X179119047Y-50886466D01*
X179119047Y-50886466D02*
X179357142Y-50886466D01*
X179357142Y-50886466D02*
X179452380Y-50838847D01*
X179833333Y-50600752D02*
X180071428Y-51267419D01*
X180071428Y-51267419D02*
X180309523Y-50600752D01*
X180690476Y-51267419D02*
X180690476Y-50600752D01*
X180690476Y-50267419D02*
X180642857Y-50315038D01*
X180642857Y-50315038D02*
X180690476Y-50362657D01*
X180690476Y-50362657D02*
X180738095Y-50315038D01*
X180738095Y-50315038D02*
X180690476Y-50267419D01*
X180690476Y-50267419D02*
X180690476Y-50362657D01*
X181595237Y-51267419D02*
X181595237Y-50267419D01*
X181595237Y-51219800D02*
X181499999Y-51267419D01*
X181499999Y-51267419D02*
X181309523Y-51267419D01*
X181309523Y-51267419D02*
X181214285Y-51219800D01*
X181214285Y-51219800D02*
X181166666Y-51172180D01*
X181166666Y-51172180D02*
X181119047Y-51076942D01*
X181119047Y-51076942D02*
X181119047Y-50791228D01*
X181119047Y-50791228D02*
X181166666Y-50695990D01*
X181166666Y-50695990D02*
X181214285Y-50648371D01*
X181214285Y-50648371D02*
X181309523Y-50600752D01*
X181309523Y-50600752D02*
X181499999Y-50600752D01*
X181499999Y-50600752D02*
X181595237Y-50648371D01*
X182452380Y-51219800D02*
X182357142Y-51267419D01*
X182357142Y-51267419D02*
X182166666Y-51267419D01*
X182166666Y-51267419D02*
X182071428Y-51219800D01*
X182071428Y-51219800D02*
X182023809Y-51124561D01*
X182023809Y-51124561D02*
X182023809Y-50743609D01*
X182023809Y-50743609D02*
X182071428Y-50648371D01*
X182071428Y-50648371D02*
X182166666Y-50600752D01*
X182166666Y-50600752D02*
X182357142Y-50600752D01*
X182357142Y-50600752D02*
X182452380Y-50648371D01*
X182452380Y-50648371D02*
X182499999Y-50743609D01*
X182499999Y-50743609D02*
X182499999Y-50838847D01*
X182499999Y-50838847D02*
X182023809Y-50934085D01*
X184023809Y-50743609D02*
X184166666Y-50791228D01*
X184166666Y-50791228D02*
X184214285Y-50838847D01*
X184214285Y-50838847D02*
X184261904Y-50934085D01*
X184261904Y-50934085D02*
X184261904Y-51076942D01*
X184261904Y-51076942D02*
X184214285Y-51172180D01*
X184214285Y-51172180D02*
X184166666Y-51219800D01*
X184166666Y-51219800D02*
X184071428Y-51267419D01*
X184071428Y-51267419D02*
X183690476Y-51267419D01*
X183690476Y-51267419D02*
X183690476Y-50267419D01*
X183690476Y-50267419D02*
X184023809Y-50267419D01*
X184023809Y-50267419D02*
X184119047Y-50315038D01*
X184119047Y-50315038D02*
X184166666Y-50362657D01*
X184166666Y-50362657D02*
X184214285Y-50457895D01*
X184214285Y-50457895D02*
X184214285Y-50553133D01*
X184214285Y-50553133D02*
X184166666Y-50648371D01*
X184166666Y-50648371D02*
X184119047Y-50695990D01*
X184119047Y-50695990D02*
X184023809Y-50743609D01*
X184023809Y-50743609D02*
X183690476Y-50743609D01*
X184833333Y-51267419D02*
X184738095Y-51219800D01*
X184738095Y-51219800D02*
X184690476Y-51172180D01*
X184690476Y-51172180D02*
X184642857Y-51076942D01*
X184642857Y-51076942D02*
X184642857Y-50791228D01*
X184642857Y-50791228D02*
X184690476Y-50695990D01*
X184690476Y-50695990D02*
X184738095Y-50648371D01*
X184738095Y-50648371D02*
X184833333Y-50600752D01*
X184833333Y-50600752D02*
X184976190Y-50600752D01*
X184976190Y-50600752D02*
X185071428Y-50648371D01*
X185071428Y-50648371D02*
X185119047Y-50695990D01*
X185119047Y-50695990D02*
X185166666Y-50791228D01*
X185166666Y-50791228D02*
X185166666Y-51076942D01*
X185166666Y-51076942D02*
X185119047Y-51172180D01*
X185119047Y-51172180D02*
X185071428Y-51219800D01*
X185071428Y-51219800D02*
X184976190Y-51267419D01*
X184976190Y-51267419D02*
X184833333Y-51267419D01*
X185595238Y-50600752D02*
X185595238Y-51267419D01*
X185595238Y-50695990D02*
X185642857Y-50648371D01*
X185642857Y-50648371D02*
X185738095Y-50600752D01*
X185738095Y-50600752D02*
X185880952Y-50600752D01*
X185880952Y-50600752D02*
X185976190Y-50648371D01*
X185976190Y-50648371D02*
X186023809Y-50743609D01*
X186023809Y-50743609D02*
X186023809Y-51267419D01*
X186928571Y-51267419D02*
X186928571Y-50743609D01*
X186928571Y-50743609D02*
X186880952Y-50648371D01*
X186880952Y-50648371D02*
X186785714Y-50600752D01*
X186785714Y-50600752D02*
X186595238Y-50600752D01*
X186595238Y-50600752D02*
X186500000Y-50648371D01*
X186928571Y-51219800D02*
X186833333Y-51267419D01*
X186833333Y-51267419D02*
X186595238Y-51267419D01*
X186595238Y-51267419D02*
X186500000Y-51219800D01*
X186500000Y-51219800D02*
X186452381Y-51124561D01*
X186452381Y-51124561D02*
X186452381Y-51029323D01*
X186452381Y-51029323D02*
X186500000Y-50934085D01*
X186500000Y-50934085D02*
X186595238Y-50886466D01*
X186595238Y-50886466D02*
X186833333Y-50886466D01*
X186833333Y-50886466D02*
X186928571Y-50838847D01*
X187309524Y-50600752D02*
X187833333Y-50600752D01*
X187833333Y-50600752D02*
X187309524Y-51267419D01*
X187309524Y-51267419D02*
X187833333Y-51267419D01*
X188119048Y-50600752D02*
X188642857Y-50600752D01*
X188642857Y-50600752D02*
X188119048Y-51267419D01*
X188119048Y-51267419D02*
X188642857Y-51267419D01*
X189452381Y-51267419D02*
X189452381Y-50743609D01*
X189452381Y-50743609D02*
X189404762Y-50648371D01*
X189404762Y-50648371D02*
X189309524Y-50600752D01*
X189309524Y-50600752D02*
X189119048Y-50600752D01*
X189119048Y-50600752D02*
X189023810Y-50648371D01*
X189452381Y-51219800D02*
X189357143Y-51267419D01*
X189357143Y-51267419D02*
X189119048Y-51267419D01*
X189119048Y-51267419D02*
X189023810Y-51219800D01*
X189023810Y-51219800D02*
X188976191Y-51124561D01*
X188976191Y-51124561D02*
X188976191Y-51029323D01*
X188976191Y-51029323D02*
X189023810Y-50934085D01*
X189023810Y-50934085D02*
X189119048Y-50886466D01*
X189119048Y-50886466D02*
X189357143Y-50886466D01*
X189357143Y-50886466D02*
X189452381Y-50838847D01*
D11*
X162496726Y-111595700D02*
X162639583Y-111643319D01*
X162639583Y-111643319D02*
X162877678Y-111643319D01*
X162877678Y-111643319D02*
X162972916Y-111595700D01*
X162972916Y-111595700D02*
X163020535Y-111548080D01*
X163020535Y-111548080D02*
X163068154Y-111452842D01*
X163068154Y-111452842D02*
X163068154Y-111357604D01*
X163068154Y-111357604D02*
X163020535Y-111262366D01*
X163020535Y-111262366D02*
X162972916Y-111214747D01*
X162972916Y-111214747D02*
X162877678Y-111167128D01*
X162877678Y-111167128D02*
X162687202Y-111119509D01*
X162687202Y-111119509D02*
X162591964Y-111071890D01*
X162591964Y-111071890D02*
X162544345Y-111024271D01*
X162544345Y-111024271D02*
X162496726Y-110929033D01*
X162496726Y-110929033D02*
X162496726Y-110833795D01*
X162496726Y-110833795D02*
X162544345Y-110738557D01*
X162544345Y-110738557D02*
X162591964Y-110690938D01*
X162591964Y-110690938D02*
X162687202Y-110643319D01*
X162687202Y-110643319D02*
X162925297Y-110643319D01*
X162925297Y-110643319D02*
X163068154Y-110690938D01*
X163401488Y-110643319D02*
X163639583Y-111643319D01*
X163639583Y-111643319D02*
X163830059Y-110929033D01*
X163830059Y-110929033D02*
X164020535Y-111643319D01*
X164020535Y-111643319D02*
X164258631Y-110643319D01*
X165163392Y-111643319D02*
X164591964Y-111643319D01*
X164877678Y-111643319D02*
X164877678Y-110643319D01*
X164877678Y-110643319D02*
X164782440Y-110786176D01*
X164782440Y-110786176D02*
X164687202Y-110881414D01*
X164687202Y-110881414D02*
X164591964Y-110929033D01*
X166115773Y-111643319D02*
X165544345Y-111643319D01*
X165830059Y-111643319D02*
X165830059Y-110643319D01*
X165830059Y-110643319D02*
X165734821Y-110786176D01*
X165734821Y-110786176D02*
X165639583Y-110881414D01*
X165639583Y-110881414D02*
X165544345Y-110929033D01*
X124872917Y-73495700D02*
X125015774Y-73543319D01*
X125015774Y-73543319D02*
X125253869Y-73543319D01*
X125253869Y-73543319D02*
X125349107Y-73495700D01*
X125349107Y-73495700D02*
X125396726Y-73448080D01*
X125396726Y-73448080D02*
X125444345Y-73352842D01*
X125444345Y-73352842D02*
X125444345Y-73257604D01*
X125444345Y-73257604D02*
X125396726Y-73162366D01*
X125396726Y-73162366D02*
X125349107Y-73114747D01*
X125349107Y-73114747D02*
X125253869Y-73067128D01*
X125253869Y-73067128D02*
X125063393Y-73019509D01*
X125063393Y-73019509D02*
X124968155Y-72971890D01*
X124968155Y-72971890D02*
X124920536Y-72924271D01*
X124920536Y-72924271D02*
X124872917Y-72829033D01*
X124872917Y-72829033D02*
X124872917Y-72733795D01*
X124872917Y-72733795D02*
X124920536Y-72638557D01*
X124920536Y-72638557D02*
X124968155Y-72590938D01*
X124968155Y-72590938D02*
X125063393Y-72543319D01*
X125063393Y-72543319D02*
X125301488Y-72543319D01*
X125301488Y-72543319D02*
X125444345Y-72590938D01*
X125777679Y-72543319D02*
X126015774Y-73543319D01*
X126015774Y-73543319D02*
X126206250Y-72829033D01*
X126206250Y-72829033D02*
X126396726Y-73543319D01*
X126396726Y-73543319D02*
X126634822Y-72543319D01*
X127539583Y-73543319D02*
X126968155Y-73543319D01*
X127253869Y-73543319D02*
X127253869Y-72543319D01*
X127253869Y-72543319D02*
X127158631Y-72686176D01*
X127158631Y-72686176D02*
X127063393Y-72781414D01*
X127063393Y-72781414D02*
X126968155Y-72829033D01*
X143922917Y-92545700D02*
X144065774Y-92593319D01*
X144065774Y-92593319D02*
X144303869Y-92593319D01*
X144303869Y-92593319D02*
X144399107Y-92545700D01*
X144399107Y-92545700D02*
X144446726Y-92498080D01*
X144446726Y-92498080D02*
X144494345Y-92402842D01*
X144494345Y-92402842D02*
X144494345Y-92307604D01*
X144494345Y-92307604D02*
X144446726Y-92212366D01*
X144446726Y-92212366D02*
X144399107Y-92164747D01*
X144399107Y-92164747D02*
X144303869Y-92117128D01*
X144303869Y-92117128D02*
X144113393Y-92069509D01*
X144113393Y-92069509D02*
X144018155Y-92021890D01*
X144018155Y-92021890D02*
X143970536Y-91974271D01*
X143970536Y-91974271D02*
X143922917Y-91879033D01*
X143922917Y-91879033D02*
X143922917Y-91783795D01*
X143922917Y-91783795D02*
X143970536Y-91688557D01*
X143970536Y-91688557D02*
X144018155Y-91640938D01*
X144018155Y-91640938D02*
X144113393Y-91593319D01*
X144113393Y-91593319D02*
X144351488Y-91593319D01*
X144351488Y-91593319D02*
X144494345Y-91640938D01*
X144827679Y-91593319D02*
X145065774Y-92593319D01*
X145065774Y-92593319D02*
X145256250Y-91879033D01*
X145256250Y-91879033D02*
X145446726Y-92593319D01*
X145446726Y-92593319D02*
X145684822Y-91593319D01*
X146494345Y-91593319D02*
X146303869Y-91593319D01*
X146303869Y-91593319D02*
X146208631Y-91640938D01*
X146208631Y-91640938D02*
X146161012Y-91688557D01*
X146161012Y-91688557D02*
X146065774Y-91831414D01*
X146065774Y-91831414D02*
X146018155Y-92021890D01*
X146018155Y-92021890D02*
X146018155Y-92402842D01*
X146018155Y-92402842D02*
X146065774Y-92498080D01*
X146065774Y-92498080D02*
X146113393Y-92545700D01*
X146113393Y-92545700D02*
X146208631Y-92593319D01*
X146208631Y-92593319D02*
X146399107Y-92593319D01*
X146399107Y-92593319D02*
X146494345Y-92545700D01*
X146494345Y-92545700D02*
X146541964Y-92498080D01*
X146541964Y-92498080D02*
X146589583Y-92402842D01*
X146589583Y-92402842D02*
X146589583Y-92164747D01*
X146589583Y-92164747D02*
X146541964Y-92069509D01*
X146541964Y-92069509D02*
X146494345Y-92021890D01*
X146494345Y-92021890D02*
X146399107Y-91974271D01*
X146399107Y-91974271D02*
X146208631Y-91974271D01*
X146208631Y-91974271D02*
X146113393Y-92021890D01*
X146113393Y-92021890D02*
X146065774Y-92069509D01*
X146065774Y-92069509D02*
X146018155Y-92164747D01*
X148299476Y-133796200D02*
X148442333Y-133843819D01*
X148442333Y-133843819D02*
X148680428Y-133843819D01*
X148680428Y-133843819D02*
X148775666Y-133796200D01*
X148775666Y-133796200D02*
X148823285Y-133748580D01*
X148823285Y-133748580D02*
X148870904Y-133653342D01*
X148870904Y-133653342D02*
X148870904Y-133558104D01*
X148870904Y-133558104D02*
X148823285Y-133462866D01*
X148823285Y-133462866D02*
X148775666Y-133415247D01*
X148775666Y-133415247D02*
X148680428Y-133367628D01*
X148680428Y-133367628D02*
X148489952Y-133320009D01*
X148489952Y-133320009D02*
X148394714Y-133272390D01*
X148394714Y-133272390D02*
X148347095Y-133224771D01*
X148347095Y-133224771D02*
X148299476Y-133129533D01*
X148299476Y-133129533D02*
X148299476Y-133034295D01*
X148299476Y-133034295D02*
X148347095Y-132939057D01*
X148347095Y-132939057D02*
X148394714Y-132891438D01*
X148394714Y-132891438D02*
X148489952Y-132843819D01*
X148489952Y-132843819D02*
X148728047Y-132843819D01*
X148728047Y-132843819D02*
X148870904Y-132891438D01*
X149204238Y-132843819D02*
X149442333Y-133843819D01*
X149442333Y-133843819D02*
X149632809Y-133129533D01*
X149632809Y-133129533D02*
X149823285Y-133843819D01*
X149823285Y-133843819D02*
X150061381Y-132843819D01*
X150966142Y-133843819D02*
X150394714Y-133843819D01*
X150680428Y-133843819D02*
X150680428Y-132843819D01*
X150680428Y-132843819D02*
X150585190Y-132986676D01*
X150585190Y-132986676D02*
X150489952Y-133081914D01*
X150489952Y-133081914D02*
X150394714Y-133129533D01*
X151299476Y-132843819D02*
X151918523Y-132843819D01*
X151918523Y-132843819D02*
X151585190Y-133224771D01*
X151585190Y-133224771D02*
X151728047Y-133224771D01*
X151728047Y-133224771D02*
X151823285Y-133272390D01*
X151823285Y-133272390D02*
X151870904Y-133320009D01*
X151870904Y-133320009D02*
X151918523Y-133415247D01*
X151918523Y-133415247D02*
X151918523Y-133653342D01*
X151918523Y-133653342D02*
X151870904Y-133748580D01*
X151870904Y-133748580D02*
X151823285Y-133796200D01*
X151823285Y-133796200D02*
X151728047Y-133843819D01*
X151728047Y-133843819D02*
X151442333Y-133843819D01*
X151442333Y-133843819D02*
X151347095Y-133796200D01*
X151347095Y-133796200D02*
X151299476Y-133748580D01*
X130960905Y-138293819D02*
X130960905Y-137293819D01*
X130960905Y-137293819D02*
X131199000Y-137293819D01*
X131199000Y-137293819D02*
X131341857Y-137341438D01*
X131341857Y-137341438D02*
X131437095Y-137436676D01*
X131437095Y-137436676D02*
X131484714Y-137531914D01*
X131484714Y-137531914D02*
X131532333Y-137722390D01*
X131532333Y-137722390D02*
X131532333Y-137865247D01*
X131532333Y-137865247D02*
X131484714Y-138055723D01*
X131484714Y-138055723D02*
X131437095Y-138150961D01*
X131437095Y-138150961D02*
X131341857Y-138246200D01*
X131341857Y-138246200D02*
X131199000Y-138293819D01*
X131199000Y-138293819D02*
X130960905Y-138293819D01*
X132484714Y-138293819D02*
X131913286Y-138293819D01*
X132199000Y-138293819D02*
X132199000Y-137293819D01*
X132199000Y-137293819D02*
X132103762Y-137436676D01*
X132103762Y-137436676D02*
X132008524Y-137531914D01*
X132008524Y-137531914D02*
X131913286Y-137579533D01*
X128727571Y-140076295D02*
X128270428Y-140076295D01*
X128499000Y-140076295D02*
X128499000Y-139276295D01*
X128499000Y-139276295D02*
X128422809Y-139390580D01*
X128422809Y-139390580D02*
X128346619Y-139466771D01*
X128346619Y-139466771D02*
X128270428Y-139504866D01*
X143446726Y-111595700D02*
X143589583Y-111643319D01*
X143589583Y-111643319D02*
X143827678Y-111643319D01*
X143827678Y-111643319D02*
X143922916Y-111595700D01*
X143922916Y-111595700D02*
X143970535Y-111548080D01*
X143970535Y-111548080D02*
X144018154Y-111452842D01*
X144018154Y-111452842D02*
X144018154Y-111357604D01*
X144018154Y-111357604D02*
X143970535Y-111262366D01*
X143970535Y-111262366D02*
X143922916Y-111214747D01*
X143922916Y-111214747D02*
X143827678Y-111167128D01*
X143827678Y-111167128D02*
X143637202Y-111119509D01*
X143637202Y-111119509D02*
X143541964Y-111071890D01*
X143541964Y-111071890D02*
X143494345Y-111024271D01*
X143494345Y-111024271D02*
X143446726Y-110929033D01*
X143446726Y-110929033D02*
X143446726Y-110833795D01*
X143446726Y-110833795D02*
X143494345Y-110738557D01*
X143494345Y-110738557D02*
X143541964Y-110690938D01*
X143541964Y-110690938D02*
X143637202Y-110643319D01*
X143637202Y-110643319D02*
X143875297Y-110643319D01*
X143875297Y-110643319D02*
X144018154Y-110690938D01*
X144351488Y-110643319D02*
X144589583Y-111643319D01*
X144589583Y-111643319D02*
X144780059Y-110929033D01*
X144780059Y-110929033D02*
X144970535Y-111643319D01*
X144970535Y-111643319D02*
X145208631Y-110643319D01*
X146113392Y-111643319D02*
X145541964Y-111643319D01*
X145827678Y-111643319D02*
X145827678Y-110643319D01*
X145827678Y-110643319D02*
X145732440Y-110786176D01*
X145732440Y-110786176D02*
X145637202Y-110881414D01*
X145637202Y-110881414D02*
X145541964Y-110929033D01*
X146732440Y-110643319D02*
X146827678Y-110643319D01*
X146827678Y-110643319D02*
X146922916Y-110690938D01*
X146922916Y-110690938D02*
X146970535Y-110738557D01*
X146970535Y-110738557D02*
X147018154Y-110833795D01*
X147018154Y-110833795D02*
X147065773Y-111024271D01*
X147065773Y-111024271D02*
X147065773Y-111262366D01*
X147065773Y-111262366D02*
X147018154Y-111452842D01*
X147018154Y-111452842D02*
X146970535Y-111548080D01*
X146970535Y-111548080D02*
X146922916Y-111595700D01*
X146922916Y-111595700D02*
X146827678Y-111643319D01*
X146827678Y-111643319D02*
X146732440Y-111643319D01*
X146732440Y-111643319D02*
X146637202Y-111595700D01*
X146637202Y-111595700D02*
X146589583Y-111548080D01*
X146589583Y-111548080D02*
X146541964Y-111452842D01*
X146541964Y-111452842D02*
X146494345Y-111262366D01*
X146494345Y-111262366D02*
X146494345Y-111024271D01*
X146494345Y-111024271D02*
X146541964Y-110833795D01*
X146541964Y-110833795D02*
X146589583Y-110738557D01*
X146589583Y-110738557D02*
X146637202Y-110690938D01*
X146637202Y-110690938D02*
X146732440Y-110643319D01*
X177061905Y-138293819D02*
X177061905Y-137293819D01*
X177061905Y-137293819D02*
X177300000Y-137293819D01*
X177300000Y-137293819D02*
X177442857Y-137341438D01*
X177442857Y-137341438D02*
X177538095Y-137436676D01*
X177538095Y-137436676D02*
X177585714Y-137531914D01*
X177585714Y-137531914D02*
X177633333Y-137722390D01*
X177633333Y-137722390D02*
X177633333Y-137865247D01*
X177633333Y-137865247D02*
X177585714Y-138055723D01*
X177585714Y-138055723D02*
X177538095Y-138150961D01*
X177538095Y-138150961D02*
X177442857Y-138246200D01*
X177442857Y-138246200D02*
X177300000Y-138293819D01*
X177300000Y-138293819D02*
X177061905Y-138293819D01*
X178014286Y-137389057D02*
X178061905Y-137341438D01*
X178061905Y-137341438D02*
X178157143Y-137293819D01*
X178157143Y-137293819D02*
X178395238Y-137293819D01*
X178395238Y-137293819D02*
X178490476Y-137341438D01*
X178490476Y-137341438D02*
X178538095Y-137389057D01*
X178538095Y-137389057D02*
X178585714Y-137484295D01*
X178585714Y-137484295D02*
X178585714Y-137579533D01*
X178585714Y-137579533D02*
X178538095Y-137722390D01*
X178538095Y-137722390D02*
X177966667Y-138293819D01*
X177966667Y-138293819D02*
X178585714Y-138293819D01*
X174828571Y-140076295D02*
X174371428Y-140076295D01*
X174600000Y-140076295D02*
X174600000Y-139276295D01*
X174600000Y-139276295D02*
X174523809Y-139390580D01*
X174523809Y-139390580D02*
X174447619Y-139466771D01*
X174447619Y-139466771D02*
X174371428Y-139504866D01*
X124872917Y-111595700D02*
X125015774Y-111643319D01*
X125015774Y-111643319D02*
X125253869Y-111643319D01*
X125253869Y-111643319D02*
X125349107Y-111595700D01*
X125349107Y-111595700D02*
X125396726Y-111548080D01*
X125396726Y-111548080D02*
X125444345Y-111452842D01*
X125444345Y-111452842D02*
X125444345Y-111357604D01*
X125444345Y-111357604D02*
X125396726Y-111262366D01*
X125396726Y-111262366D02*
X125349107Y-111214747D01*
X125349107Y-111214747D02*
X125253869Y-111167128D01*
X125253869Y-111167128D02*
X125063393Y-111119509D01*
X125063393Y-111119509D02*
X124968155Y-111071890D01*
X124968155Y-111071890D02*
X124920536Y-111024271D01*
X124920536Y-111024271D02*
X124872917Y-110929033D01*
X124872917Y-110929033D02*
X124872917Y-110833795D01*
X124872917Y-110833795D02*
X124920536Y-110738557D01*
X124920536Y-110738557D02*
X124968155Y-110690938D01*
X124968155Y-110690938D02*
X125063393Y-110643319D01*
X125063393Y-110643319D02*
X125301488Y-110643319D01*
X125301488Y-110643319D02*
X125444345Y-110690938D01*
X125777679Y-110643319D02*
X126015774Y-111643319D01*
X126015774Y-111643319D02*
X126206250Y-110929033D01*
X126206250Y-110929033D02*
X126396726Y-111643319D01*
X126396726Y-111643319D02*
X126634822Y-110643319D01*
X127063393Y-111643319D02*
X127253869Y-111643319D01*
X127253869Y-111643319D02*
X127349107Y-111595700D01*
X127349107Y-111595700D02*
X127396726Y-111548080D01*
X127396726Y-111548080D02*
X127491964Y-111405223D01*
X127491964Y-111405223D02*
X127539583Y-111214747D01*
X127539583Y-111214747D02*
X127539583Y-110833795D01*
X127539583Y-110833795D02*
X127491964Y-110738557D01*
X127491964Y-110738557D02*
X127444345Y-110690938D01*
X127444345Y-110690938D02*
X127349107Y-110643319D01*
X127349107Y-110643319D02*
X127158631Y-110643319D01*
X127158631Y-110643319D02*
X127063393Y-110690938D01*
X127063393Y-110690938D02*
X127015774Y-110738557D01*
X127015774Y-110738557D02*
X126968155Y-110833795D01*
X126968155Y-110833795D02*
X126968155Y-111071890D01*
X126968155Y-111071890D02*
X127015774Y-111167128D01*
X127015774Y-111167128D02*
X127063393Y-111214747D01*
X127063393Y-111214747D02*
X127158631Y-111262366D01*
X127158631Y-111262366D02*
X127349107Y-111262366D01*
X127349107Y-111262366D02*
X127444345Y-111214747D01*
X127444345Y-111214747D02*
X127491964Y-111167128D01*
X127491964Y-111167128D02*
X127539583Y-111071890D01*
X162972917Y-73495700D02*
X163115774Y-73543319D01*
X163115774Y-73543319D02*
X163353869Y-73543319D01*
X163353869Y-73543319D02*
X163449107Y-73495700D01*
X163449107Y-73495700D02*
X163496726Y-73448080D01*
X163496726Y-73448080D02*
X163544345Y-73352842D01*
X163544345Y-73352842D02*
X163544345Y-73257604D01*
X163544345Y-73257604D02*
X163496726Y-73162366D01*
X163496726Y-73162366D02*
X163449107Y-73114747D01*
X163449107Y-73114747D02*
X163353869Y-73067128D01*
X163353869Y-73067128D02*
X163163393Y-73019509D01*
X163163393Y-73019509D02*
X163068155Y-72971890D01*
X163068155Y-72971890D02*
X163020536Y-72924271D01*
X163020536Y-72924271D02*
X162972917Y-72829033D01*
X162972917Y-72829033D02*
X162972917Y-72733795D01*
X162972917Y-72733795D02*
X163020536Y-72638557D01*
X163020536Y-72638557D02*
X163068155Y-72590938D01*
X163068155Y-72590938D02*
X163163393Y-72543319D01*
X163163393Y-72543319D02*
X163401488Y-72543319D01*
X163401488Y-72543319D02*
X163544345Y-72590938D01*
X163877679Y-72543319D02*
X164115774Y-73543319D01*
X164115774Y-73543319D02*
X164306250Y-72829033D01*
X164306250Y-72829033D02*
X164496726Y-73543319D01*
X164496726Y-73543319D02*
X164734822Y-72543319D01*
X165020536Y-72543319D02*
X165639583Y-72543319D01*
X165639583Y-72543319D02*
X165306250Y-72924271D01*
X165306250Y-72924271D02*
X165449107Y-72924271D01*
X165449107Y-72924271D02*
X165544345Y-72971890D01*
X165544345Y-72971890D02*
X165591964Y-73019509D01*
X165591964Y-73019509D02*
X165639583Y-73114747D01*
X165639583Y-73114747D02*
X165639583Y-73352842D01*
X165639583Y-73352842D02*
X165591964Y-73448080D01*
X165591964Y-73448080D02*
X165544345Y-73495700D01*
X165544345Y-73495700D02*
X165449107Y-73543319D01*
X165449107Y-73543319D02*
X165163393Y-73543319D01*
X165163393Y-73543319D02*
X165068155Y-73495700D01*
X165068155Y-73495700D02*
X165020536Y-73448080D01*
X181546726Y-111595700D02*
X181689583Y-111643319D01*
X181689583Y-111643319D02*
X181927678Y-111643319D01*
X181927678Y-111643319D02*
X182022916Y-111595700D01*
X182022916Y-111595700D02*
X182070535Y-111548080D01*
X182070535Y-111548080D02*
X182118154Y-111452842D01*
X182118154Y-111452842D02*
X182118154Y-111357604D01*
X182118154Y-111357604D02*
X182070535Y-111262366D01*
X182070535Y-111262366D02*
X182022916Y-111214747D01*
X182022916Y-111214747D02*
X181927678Y-111167128D01*
X181927678Y-111167128D02*
X181737202Y-111119509D01*
X181737202Y-111119509D02*
X181641964Y-111071890D01*
X181641964Y-111071890D02*
X181594345Y-111024271D01*
X181594345Y-111024271D02*
X181546726Y-110929033D01*
X181546726Y-110929033D02*
X181546726Y-110833795D01*
X181546726Y-110833795D02*
X181594345Y-110738557D01*
X181594345Y-110738557D02*
X181641964Y-110690938D01*
X181641964Y-110690938D02*
X181737202Y-110643319D01*
X181737202Y-110643319D02*
X181975297Y-110643319D01*
X181975297Y-110643319D02*
X182118154Y-110690938D01*
X182451488Y-110643319D02*
X182689583Y-111643319D01*
X182689583Y-111643319D02*
X182880059Y-110929033D01*
X182880059Y-110929033D02*
X183070535Y-111643319D01*
X183070535Y-111643319D02*
X183308631Y-110643319D01*
X184213392Y-111643319D02*
X183641964Y-111643319D01*
X183927678Y-111643319D02*
X183927678Y-110643319D01*
X183927678Y-110643319D02*
X183832440Y-110786176D01*
X183832440Y-110786176D02*
X183737202Y-110881414D01*
X183737202Y-110881414D02*
X183641964Y-110929033D01*
X184594345Y-110738557D02*
X184641964Y-110690938D01*
X184641964Y-110690938D02*
X184737202Y-110643319D01*
X184737202Y-110643319D02*
X184975297Y-110643319D01*
X184975297Y-110643319D02*
X185070535Y-110690938D01*
X185070535Y-110690938D02*
X185118154Y-110738557D01*
X185118154Y-110738557D02*
X185165773Y-110833795D01*
X185165773Y-110833795D02*
X185165773Y-110929033D01*
X185165773Y-110929033D02*
X185118154Y-111071890D01*
X185118154Y-111071890D02*
X184546726Y-111643319D01*
X184546726Y-111643319D02*
X185165773Y-111643319D01*
X182022917Y-92545700D02*
X182165774Y-92593319D01*
X182165774Y-92593319D02*
X182403869Y-92593319D01*
X182403869Y-92593319D02*
X182499107Y-92545700D01*
X182499107Y-92545700D02*
X182546726Y-92498080D01*
X182546726Y-92498080D02*
X182594345Y-92402842D01*
X182594345Y-92402842D02*
X182594345Y-92307604D01*
X182594345Y-92307604D02*
X182546726Y-92212366D01*
X182546726Y-92212366D02*
X182499107Y-92164747D01*
X182499107Y-92164747D02*
X182403869Y-92117128D01*
X182403869Y-92117128D02*
X182213393Y-92069509D01*
X182213393Y-92069509D02*
X182118155Y-92021890D01*
X182118155Y-92021890D02*
X182070536Y-91974271D01*
X182070536Y-91974271D02*
X182022917Y-91879033D01*
X182022917Y-91879033D02*
X182022917Y-91783795D01*
X182022917Y-91783795D02*
X182070536Y-91688557D01*
X182070536Y-91688557D02*
X182118155Y-91640938D01*
X182118155Y-91640938D02*
X182213393Y-91593319D01*
X182213393Y-91593319D02*
X182451488Y-91593319D01*
X182451488Y-91593319D02*
X182594345Y-91640938D01*
X182927679Y-91593319D02*
X183165774Y-92593319D01*
X183165774Y-92593319D02*
X183356250Y-91879033D01*
X183356250Y-91879033D02*
X183546726Y-92593319D01*
X183546726Y-92593319D02*
X183784822Y-91593319D01*
X184308631Y-92021890D02*
X184213393Y-91974271D01*
X184213393Y-91974271D02*
X184165774Y-91926652D01*
X184165774Y-91926652D02*
X184118155Y-91831414D01*
X184118155Y-91831414D02*
X184118155Y-91783795D01*
X184118155Y-91783795D02*
X184165774Y-91688557D01*
X184165774Y-91688557D02*
X184213393Y-91640938D01*
X184213393Y-91640938D02*
X184308631Y-91593319D01*
X184308631Y-91593319D02*
X184499107Y-91593319D01*
X184499107Y-91593319D02*
X184594345Y-91640938D01*
X184594345Y-91640938D02*
X184641964Y-91688557D01*
X184641964Y-91688557D02*
X184689583Y-91783795D01*
X184689583Y-91783795D02*
X184689583Y-91831414D01*
X184689583Y-91831414D02*
X184641964Y-91926652D01*
X184641964Y-91926652D02*
X184594345Y-91974271D01*
X184594345Y-91974271D02*
X184499107Y-92021890D01*
X184499107Y-92021890D02*
X184308631Y-92021890D01*
X184308631Y-92021890D02*
X184213393Y-92069509D01*
X184213393Y-92069509D02*
X184165774Y-92117128D01*
X184165774Y-92117128D02*
X184118155Y-92212366D01*
X184118155Y-92212366D02*
X184118155Y-92402842D01*
X184118155Y-92402842D02*
X184165774Y-92498080D01*
X184165774Y-92498080D02*
X184213393Y-92545700D01*
X184213393Y-92545700D02*
X184308631Y-92593319D01*
X184308631Y-92593319D02*
X184499107Y-92593319D01*
X184499107Y-92593319D02*
X184594345Y-92545700D01*
X184594345Y-92545700D02*
X184641964Y-92498080D01*
X184641964Y-92498080D02*
X184689583Y-92402842D01*
X184689583Y-92402842D02*
X184689583Y-92212366D01*
X184689583Y-92212366D02*
X184641964Y-92117128D01*
X184641964Y-92117128D02*
X184594345Y-92069509D01*
X184594345Y-92069509D02*
X184499107Y-92021890D01*
X143922917Y-73495700D02*
X144065774Y-73543319D01*
X144065774Y-73543319D02*
X144303869Y-73543319D01*
X144303869Y-73543319D02*
X144399107Y-73495700D01*
X144399107Y-73495700D02*
X144446726Y-73448080D01*
X144446726Y-73448080D02*
X144494345Y-73352842D01*
X144494345Y-73352842D02*
X144494345Y-73257604D01*
X144494345Y-73257604D02*
X144446726Y-73162366D01*
X144446726Y-73162366D02*
X144399107Y-73114747D01*
X144399107Y-73114747D02*
X144303869Y-73067128D01*
X144303869Y-73067128D02*
X144113393Y-73019509D01*
X144113393Y-73019509D02*
X144018155Y-72971890D01*
X144018155Y-72971890D02*
X143970536Y-72924271D01*
X143970536Y-72924271D02*
X143922917Y-72829033D01*
X143922917Y-72829033D02*
X143922917Y-72733795D01*
X143922917Y-72733795D02*
X143970536Y-72638557D01*
X143970536Y-72638557D02*
X144018155Y-72590938D01*
X144018155Y-72590938D02*
X144113393Y-72543319D01*
X144113393Y-72543319D02*
X144351488Y-72543319D01*
X144351488Y-72543319D02*
X144494345Y-72590938D01*
X144827679Y-72543319D02*
X145065774Y-73543319D01*
X145065774Y-73543319D02*
X145256250Y-72829033D01*
X145256250Y-72829033D02*
X145446726Y-73543319D01*
X145446726Y-73543319D02*
X145684822Y-72543319D01*
X146018155Y-72638557D02*
X146065774Y-72590938D01*
X146065774Y-72590938D02*
X146161012Y-72543319D01*
X146161012Y-72543319D02*
X146399107Y-72543319D01*
X146399107Y-72543319D02*
X146494345Y-72590938D01*
X146494345Y-72590938D02*
X146541964Y-72638557D01*
X146541964Y-72638557D02*
X146589583Y-72733795D01*
X146589583Y-72733795D02*
X146589583Y-72829033D01*
X146589583Y-72829033D02*
X146541964Y-72971890D01*
X146541964Y-72971890D02*
X145970536Y-73543319D01*
X145970536Y-73543319D02*
X146589583Y-73543319D01*
X182022917Y-73495700D02*
X182165774Y-73543319D01*
X182165774Y-73543319D02*
X182403869Y-73543319D01*
X182403869Y-73543319D02*
X182499107Y-73495700D01*
X182499107Y-73495700D02*
X182546726Y-73448080D01*
X182546726Y-73448080D02*
X182594345Y-73352842D01*
X182594345Y-73352842D02*
X182594345Y-73257604D01*
X182594345Y-73257604D02*
X182546726Y-73162366D01*
X182546726Y-73162366D02*
X182499107Y-73114747D01*
X182499107Y-73114747D02*
X182403869Y-73067128D01*
X182403869Y-73067128D02*
X182213393Y-73019509D01*
X182213393Y-73019509D02*
X182118155Y-72971890D01*
X182118155Y-72971890D02*
X182070536Y-72924271D01*
X182070536Y-72924271D02*
X182022917Y-72829033D01*
X182022917Y-72829033D02*
X182022917Y-72733795D01*
X182022917Y-72733795D02*
X182070536Y-72638557D01*
X182070536Y-72638557D02*
X182118155Y-72590938D01*
X182118155Y-72590938D02*
X182213393Y-72543319D01*
X182213393Y-72543319D02*
X182451488Y-72543319D01*
X182451488Y-72543319D02*
X182594345Y-72590938D01*
X182927679Y-72543319D02*
X183165774Y-73543319D01*
X183165774Y-73543319D02*
X183356250Y-72829033D01*
X183356250Y-72829033D02*
X183546726Y-73543319D01*
X183546726Y-73543319D02*
X183784822Y-72543319D01*
X184594345Y-72876652D02*
X184594345Y-73543319D01*
X184356250Y-72495700D02*
X184118155Y-73209985D01*
X184118155Y-73209985D02*
X184737202Y-73209985D01*
X124872917Y-92545700D02*
X125015774Y-92593319D01*
X125015774Y-92593319D02*
X125253869Y-92593319D01*
X125253869Y-92593319D02*
X125349107Y-92545700D01*
X125349107Y-92545700D02*
X125396726Y-92498080D01*
X125396726Y-92498080D02*
X125444345Y-92402842D01*
X125444345Y-92402842D02*
X125444345Y-92307604D01*
X125444345Y-92307604D02*
X125396726Y-92212366D01*
X125396726Y-92212366D02*
X125349107Y-92164747D01*
X125349107Y-92164747D02*
X125253869Y-92117128D01*
X125253869Y-92117128D02*
X125063393Y-92069509D01*
X125063393Y-92069509D02*
X124968155Y-92021890D01*
X124968155Y-92021890D02*
X124920536Y-91974271D01*
X124920536Y-91974271D02*
X124872917Y-91879033D01*
X124872917Y-91879033D02*
X124872917Y-91783795D01*
X124872917Y-91783795D02*
X124920536Y-91688557D01*
X124920536Y-91688557D02*
X124968155Y-91640938D01*
X124968155Y-91640938D02*
X125063393Y-91593319D01*
X125063393Y-91593319D02*
X125301488Y-91593319D01*
X125301488Y-91593319D02*
X125444345Y-91640938D01*
X125777679Y-91593319D02*
X126015774Y-92593319D01*
X126015774Y-92593319D02*
X126206250Y-91879033D01*
X126206250Y-91879033D02*
X126396726Y-92593319D01*
X126396726Y-92593319D02*
X126634822Y-91593319D01*
X127491964Y-91593319D02*
X127015774Y-91593319D01*
X127015774Y-91593319D02*
X126968155Y-92069509D01*
X126968155Y-92069509D02*
X127015774Y-92021890D01*
X127015774Y-92021890D02*
X127111012Y-91974271D01*
X127111012Y-91974271D02*
X127349107Y-91974271D01*
X127349107Y-91974271D02*
X127444345Y-92021890D01*
X127444345Y-92021890D02*
X127491964Y-92069509D01*
X127491964Y-92069509D02*
X127539583Y-92164747D01*
X127539583Y-92164747D02*
X127539583Y-92402842D01*
X127539583Y-92402842D02*
X127491964Y-92498080D01*
X127491964Y-92498080D02*
X127444345Y-92545700D01*
X127444345Y-92545700D02*
X127349107Y-92593319D01*
X127349107Y-92593319D02*
X127111012Y-92593319D01*
X127111012Y-92593319D02*
X127015774Y-92545700D01*
X127015774Y-92545700D02*
X126968155Y-92498080D01*
X162972917Y-92545700D02*
X163115774Y-92593319D01*
X163115774Y-92593319D02*
X163353869Y-92593319D01*
X163353869Y-92593319D02*
X163449107Y-92545700D01*
X163449107Y-92545700D02*
X163496726Y-92498080D01*
X163496726Y-92498080D02*
X163544345Y-92402842D01*
X163544345Y-92402842D02*
X163544345Y-92307604D01*
X163544345Y-92307604D02*
X163496726Y-92212366D01*
X163496726Y-92212366D02*
X163449107Y-92164747D01*
X163449107Y-92164747D02*
X163353869Y-92117128D01*
X163353869Y-92117128D02*
X163163393Y-92069509D01*
X163163393Y-92069509D02*
X163068155Y-92021890D01*
X163068155Y-92021890D02*
X163020536Y-91974271D01*
X163020536Y-91974271D02*
X162972917Y-91879033D01*
X162972917Y-91879033D02*
X162972917Y-91783795D01*
X162972917Y-91783795D02*
X163020536Y-91688557D01*
X163020536Y-91688557D02*
X163068155Y-91640938D01*
X163068155Y-91640938D02*
X163163393Y-91593319D01*
X163163393Y-91593319D02*
X163401488Y-91593319D01*
X163401488Y-91593319D02*
X163544345Y-91640938D01*
X163877679Y-91593319D02*
X164115774Y-92593319D01*
X164115774Y-92593319D02*
X164306250Y-91879033D01*
X164306250Y-91879033D02*
X164496726Y-92593319D01*
X164496726Y-92593319D02*
X164734822Y-91593319D01*
X165020536Y-91593319D02*
X165687202Y-91593319D01*
X165687202Y-91593319D02*
X165258631Y-92593319D01*
D12*
%TO.C,SW11*%
X157321250Y-112077500D02*
X171291250Y-112077500D01*
X157321250Y-126047500D02*
X157321250Y-112077500D01*
X171291250Y-112077500D02*
X171291250Y-126047500D01*
X171291250Y-126047500D02*
X157321250Y-126047500D01*
%TO.C,SW1*%
X119221250Y-73977500D02*
X133191250Y-73977500D01*
X119221250Y-87947500D02*
X119221250Y-73977500D01*
X133191250Y-73977500D02*
X133191250Y-87947500D01*
X133191250Y-87947500D02*
X119221250Y-87947500D01*
%TO.C,SW6*%
X138271250Y-93027500D02*
X152241250Y-93027500D01*
X138271250Y-106997500D02*
X138271250Y-93027500D01*
X152241250Y-93027500D02*
X152241250Y-106997500D01*
X152241250Y-106997500D02*
X138271250Y-106997500D01*
%TO.C,SW13*%
X147009000Y-136489000D02*
X147609000Y-136489000D01*
X147309000Y-136789000D02*
X147009000Y-136489000D01*
X147609000Y-136489000D02*
X147309000Y-136789000D01*
X148709000Y-134689000D02*
X148709000Y-146489000D01*
X152809000Y-134689000D02*
X148709000Y-134689000D01*
X152809000Y-146489000D02*
X148709000Y-146489000D01*
X154309000Y-140589000D02*
X155309000Y-140589000D01*
X154809000Y-140089000D02*
X154809000Y-141089000D01*
X156809000Y-134689000D02*
X160909000Y-134689000D01*
X160909000Y-134689000D02*
X160909000Y-137089000D01*
X160909000Y-139289000D02*
X160909000Y-141889000D01*
X160909000Y-144089000D02*
X160909000Y-146489000D01*
X160909000Y-146489000D02*
X156809000Y-146489000D01*
X157809000Y-140589000D02*
G75*
G02*
X151809000Y-140589000I-3000000J0D01*
G01*
X151809000Y-140589000D02*
G75*
G02*
X157809000Y-140589000I3000000J0D01*
G01*
%TO.C,D1*%
X128899000Y-138589000D02*
X128899000Y-142589000D01*
X128899000Y-138589000D02*
X134499000Y-138589000D01*
X128899000Y-142589000D02*
X133899000Y-142589000D01*
X134499000Y-141989000D02*
X133899000Y-142589000D01*
X134499000Y-141989000D02*
X134499000Y-138589000D01*
%TO.C,SW10*%
X138271250Y-112077500D02*
X152241250Y-112077500D01*
X138271250Y-126047500D02*
X138271250Y-112077500D01*
X152241250Y-112077500D02*
X152241250Y-126047500D01*
X152241250Y-126047500D02*
X138271250Y-126047500D01*
D13*
%TO.C,U1*%
X145870000Y-67567500D02*
X145870000Y-50422500D01*
X147775000Y-69472500D02*
X161745000Y-69472500D01*
X150265000Y-48517500D02*
X150268728Y-47607228D01*
X150768728Y-47107500D02*
X158764000Y-47107500D01*
X159264000Y-47607500D02*
X159264000Y-48517500D01*
D10*
X161745000Y-48517500D02*
X147775000Y-48517500D01*
D13*
X161745000Y-48517500D02*
X147775000Y-48517500D01*
X163650000Y-67567500D02*
X163650000Y-50422500D01*
X145870000Y-50422500D02*
G75*
G02*
X147775000Y-48517500I1905001J-1D01*
G01*
X147775000Y-69472500D02*
G75*
G02*
X145870000Y-67567500I1J1905001D01*
G01*
X150268728Y-47607228D02*
G75*
G02*
X150768728Y-47107501I500018J-291D01*
G01*
X158764000Y-47107500D02*
G75*
G02*
X159264000Y-47607500I0J-500000D01*
G01*
X161745000Y-48517500D02*
G75*
G02*
X163650000Y-50422500I0J-1905000D01*
G01*
X163650000Y-67567500D02*
G75*
G02*
X161745000Y-69472500I-1905000J0D01*
G01*
D14*
X146062000Y-48758500D02*
G75*
G02*
X145558000Y-48758500I-252000J0D01*
G01*
X145558000Y-48758500D02*
G75*
G02*
X146062000Y-48758500I252000J0D01*
G01*
X147205000Y-49638500D02*
G75*
G02*
X146701000Y-49638500I-252000J0D01*
G01*
X146701000Y-49638500D02*
G75*
G02*
X147205000Y-49638500I252000J0D01*
G01*
D12*
%TO.C,D2*%
X175000000Y-138589000D02*
X175000000Y-142589000D01*
X175000000Y-138589000D02*
X180600000Y-138589000D01*
X175000000Y-142589000D02*
X180000000Y-142589000D01*
X180600000Y-141989000D02*
X180000000Y-142589000D01*
X180600000Y-141989000D02*
X180600000Y-138589000D01*
%TO.C,SW9*%
X119221250Y-112077500D02*
X133191250Y-112077500D01*
X119221250Y-126047500D02*
X119221250Y-112077500D01*
X133191250Y-112077500D02*
X133191250Y-126047500D01*
X133191250Y-126047500D02*
X119221250Y-126047500D01*
%TO.C,SW3*%
X157321250Y-73977500D02*
X171291250Y-73977500D01*
X157321250Y-87947500D02*
X157321250Y-73977500D01*
X171291250Y-73977500D02*
X171291250Y-87947500D01*
X171291250Y-87947500D02*
X157321250Y-87947500D01*
%TO.C,SW12*%
X176371250Y-112077500D02*
X190341250Y-112077500D01*
X176371250Y-126047500D02*
X176371250Y-112077500D01*
X190341250Y-112077500D02*
X190341250Y-126047500D01*
X190341250Y-126047500D02*
X176371250Y-126047500D01*
%TO.C,SW8*%
X176371250Y-93027500D02*
X190341250Y-93027500D01*
X176371250Y-106997500D02*
X176371250Y-93027500D01*
X190341250Y-93027500D02*
X190341250Y-106997500D01*
X190341250Y-106997500D02*
X176371250Y-106997500D01*
%TO.C,SW2*%
X138271250Y-73977500D02*
X152241250Y-73977500D01*
X138271250Y-87947500D02*
X138271250Y-73977500D01*
X152241250Y-73977500D02*
X152241250Y-87947500D01*
X152241250Y-87947500D02*
X138271250Y-87947500D01*
%TO.C,SW4*%
X176371250Y-73977500D02*
X190341250Y-73977500D01*
X176371250Y-87947500D02*
X176371250Y-73977500D01*
X190341250Y-73977500D02*
X190341250Y-87947500D01*
X190341250Y-87947500D02*
X176371250Y-87947500D01*
%TO.C,SW5*%
X119221250Y-93027500D02*
X133191250Y-93027500D01*
X119221250Y-106997500D02*
X119221250Y-93027500D01*
X133191250Y-93027500D02*
X133191250Y-106997500D01*
X133191250Y-106997500D02*
X119221250Y-106997500D01*
%TO.C,SW7*%
X157321250Y-93027500D02*
X171291250Y-93027500D01*
X157321250Y-106997500D02*
X157321250Y-93027500D01*
X171291250Y-93027500D02*
X171291250Y-106997500D01*
X171291250Y-106997500D02*
X157321250Y-106997500D01*
%TD*%
M02*
