%TF.GenerationSoftware,KiCad,Pcbnew,9.0.6*%
%TF.CreationDate,2025-11-30T21:38:08+01:00*%
%TF.ProjectId,Progetto1,50726f67-6574-4746-9f31-2e6b69636164,rev?*%
%TF.SameCoordinates,Original*%
%TF.FileFunction,Soldermask,Top*%
%TF.FilePolarity,Negative*%
%FSLAX46Y46*%
G04 Gerber Fmt 4.6, Leading zero omitted, Abs format (unit mm)*
G04 Created by KiCad (PCBNEW 9.0.6) date 2025-11-30 21:38:08*
%MOMM*%
%LPD*%
G01*
G04 APERTURE LIST*
G04 Aperture macros list*
%AMRoundRect*
0 Rectangle with rounded corners*
0 $1 Rounding radius*
0 $2 $3 $4 $5 $6 $7 $8 $9 X,Y pos of 4 corners*
0 Add a 4 corners polygon primitive as box body*
4,1,4,$2,$3,$4,$5,$6,$7,$8,$9,$2,$3,0*
0 Add four circle primitives for the rounded corners*
1,1,$1+$1,$2,$3*
1,1,$1+$1,$4,$5*
1,1,$1+$1,$6,$7*
1,1,$1+$1,$8,$9*
0 Add four rect primitives between the rounded corners*
20,1,$1+$1,$2,$3,$4,$5,0*
20,1,$1+$1,$4,$5,$6,$7,0*
20,1,$1+$1,$6,$7,$8,$9,0*
20,1,$1+$1,$8,$9,$2,$3,0*%
G04 Aperture macros list end*
%ADD10C,1.700000*%
%ADD11C,4.000000*%
%ADD12C,2.200000*%
%ADD13R,2.000000X2.000000*%
%ADD14C,2.000000*%
%ADD15R,3.200000X2.000000*%
%ADD16R,1.600000X0.850000*%
%ADD17RoundRect,0.152400X1.063600X0.609600X-1.063600X0.609600X-1.063600X-0.609600X1.063600X-0.609600X0*%
%ADD18C,1.524000*%
%ADD19RoundRect,0.152400X-1.063600X-0.609600X1.063600X-0.609600X1.063600X0.609600X-1.063600X0.609600X0*%
%ADD20RoundRect,0.250000X-0.550000X0.550000X-0.550000X-0.550000X0.550000X-0.550000X0.550000X0.550000X0*%
%ADD21C,1.600000*%
G04 APERTURE END LIST*
D10*
%TO.C,SW11*%
X159226250Y-119062500D03*
D11*
X164306250Y-119062500D03*
D10*
X169386250Y-119062500D03*
D12*
X166846250Y-113982500D03*
X160496250Y-116522500D03*
%TD*%
D10*
%TO.C,SW1*%
X121126250Y-80962500D03*
D11*
X126206250Y-80962500D03*
D10*
X131286250Y-80962500D03*
D12*
X128746250Y-75882500D03*
X122396250Y-78422500D03*
%TD*%
D10*
%TO.C,SW6*%
X140176250Y-100012500D03*
D11*
X145256250Y-100012500D03*
D10*
X150336250Y-100012500D03*
D12*
X147796250Y-94932500D03*
X141446250Y-97472500D03*
%TD*%
D13*
%TO.C,SW13*%
X147309000Y-138089000D03*
D14*
X147309000Y-143089000D03*
X147309000Y-140589000D03*
D15*
X154809000Y-134989000D03*
X154809000Y-146189000D03*
D14*
X161809000Y-143089000D03*
X161809000Y-138089000D03*
%TD*%
D16*
%TO.C,D1*%
X129949000Y-139714000D03*
X129949000Y-141464000D03*
X133449000Y-141464000D03*
X133449000Y-139714000D03*
%TD*%
D10*
%TO.C,SW10*%
X140176250Y-119062500D03*
D11*
X145256250Y-119062500D03*
D10*
X150336250Y-119062500D03*
D12*
X147796250Y-113982500D03*
X141446250Y-116522500D03*
%TD*%
D17*
%TO.C,U1*%
X146305000Y-51438500D03*
D18*
X147140000Y-51438500D03*
D17*
X146305000Y-53978500D03*
D18*
X147140000Y-53978500D03*
D17*
X146305000Y-56518500D03*
D18*
X147140000Y-56518500D03*
D17*
X146305000Y-59058500D03*
D18*
X147140000Y-59058500D03*
D17*
X146305000Y-61598500D03*
D18*
X147140000Y-61598500D03*
D17*
X146305000Y-64138500D03*
D18*
X147140000Y-64138500D03*
D17*
X146305000Y-66678500D03*
D18*
X147140000Y-66678500D03*
X162380000Y-66678500D03*
D19*
X163215000Y-66678500D03*
D18*
X162380000Y-64138500D03*
D19*
X163215000Y-64138500D03*
D18*
X162380000Y-61598500D03*
D19*
X163215000Y-61598500D03*
D18*
X162380000Y-59058500D03*
D19*
X163215000Y-59058500D03*
D18*
X162380000Y-56518500D03*
D19*
X163215000Y-56518500D03*
D18*
X162380000Y-53978500D03*
D19*
X163215000Y-53978500D03*
D18*
X162380000Y-51438500D03*
D19*
X163215000Y-51438500D03*
%TD*%
D16*
%TO.C,D2*%
X176050000Y-139714000D03*
X176050000Y-141464000D03*
X179550000Y-141464000D03*
X179550000Y-139714000D03*
%TD*%
D10*
%TO.C,SW9*%
X121126250Y-119062500D03*
D11*
X126206250Y-119062500D03*
D10*
X131286250Y-119062500D03*
D12*
X128746250Y-113982500D03*
X122396250Y-116522500D03*
%TD*%
D10*
%TO.C,SW3*%
X159226250Y-80962500D03*
D11*
X164306250Y-80962500D03*
D10*
X169386250Y-80962500D03*
D12*
X166846250Y-75882500D03*
X160496250Y-78422500D03*
%TD*%
D10*
%TO.C,SW12*%
X178276250Y-119062500D03*
D11*
X183356250Y-119062500D03*
D10*
X188436250Y-119062500D03*
D12*
X185896250Y-113982500D03*
X179546250Y-116522500D03*
%TD*%
D10*
%TO.C,SW8*%
X178276250Y-100012500D03*
D11*
X183356250Y-100012500D03*
D10*
X188436250Y-100012500D03*
D12*
X185896250Y-94932500D03*
X179546250Y-97472500D03*
%TD*%
D10*
%TO.C,SW2*%
X140176250Y-80962500D03*
D11*
X145256250Y-80962500D03*
D10*
X150336250Y-80962500D03*
D12*
X147796250Y-75882500D03*
X141446250Y-78422500D03*
%TD*%
D10*
%TO.C,SW4*%
X178276250Y-80962500D03*
D11*
X183356250Y-80962500D03*
D10*
X188436250Y-80962500D03*
D12*
X185896250Y-75882500D03*
X179546250Y-78422500D03*
%TD*%
D10*
%TO.C,SW5*%
X121126250Y-100012500D03*
D11*
X126206250Y-100012500D03*
D10*
X131286250Y-100012500D03*
D12*
X128746250Y-94932500D03*
X122396250Y-97472500D03*
%TD*%
D10*
%TO.C,SW7*%
X159226250Y-100012500D03*
D11*
X164306250Y-100012500D03*
D10*
X169386250Y-100012500D03*
D12*
X166846250Y-94932500D03*
X160496250Y-97472500D03*
%TD*%
D20*
%TO.C,D8*%
X136970000Y-70840000D03*
D21*
X136970000Y-78460000D03*
%TD*%
D20*
%TO.C,D13*%
X175006000Y-89916000D03*
D21*
X175006000Y-97536000D03*
%TD*%
D20*
%TO.C,D5*%
X117856000Y-109093000D03*
D21*
X117856000Y-116713000D03*
%TD*%
D20*
%TO.C,D10*%
X155956000Y-89916000D03*
D21*
X155956000Y-97536000D03*
%TD*%
D20*
%TO.C,D6*%
X136906000Y-108966000D03*
D21*
X136906000Y-116586000D03*
%TD*%
D20*
%TO.C,D9*%
X155956000Y-70866000D03*
D21*
X155956000Y-78486000D03*
%TD*%
D20*
%TO.C,D14*%
X175006000Y-70866000D03*
D21*
X175006000Y-78486000D03*
%TD*%
D20*
%TO.C,D7*%
X136906000Y-89916000D03*
D21*
X136906000Y-97536000D03*
%TD*%
D20*
%TO.C,D12*%
X175006000Y-108966000D03*
D21*
X175006000Y-116586000D03*
%TD*%
D20*
%TO.C,D11*%
X155956000Y-108966000D03*
D21*
X155956000Y-116586000D03*
%TD*%
D20*
%TO.C,D3*%
X117856000Y-70866000D03*
D21*
X117856000Y-78486000D03*
%TD*%
D20*
%TO.C,D4*%
X117856000Y-89916000D03*
D21*
X117856000Y-97536000D03*
%TD*%
M02*
